Coordinates
version=1
nRows=14
nColumns=40
inDegrees=yes

Units are S.I. units (second, meters, Newtons, ...)
Angles are in degrees.

endheader
time	pelvis_tilt	pelvis_list	pelvis_rotation	pelvis_tx	pelvis_ty	pelvis_tz	hip_flexion_r	hip_adduction_r	hip_rotation_r	knee_angle_r	knee_angle_r_beta	ankle_angle_r	subtalar_angle_r	mtp_angle_r	hip_flexion_l	hip_adduction_l	hip_rotation_l	knee_angle_l	knee_angle_l_beta	ankle_angle_l	subtalar_angle_l	mtp_angle_l	lumbar_extension	lumbar_bending	lumbar_rotation	arm_flex_r	arm_add_r	arm_rot_r	elbow_flex_r	pro_sup_r	wrist_flex_r	wrist_dev_r	arm_flex_l	arm_add_l	arm_rot_l	elbow_flex_l	pro_sup_l	wrist_flex_l	wrist_dev_l
     52.58000000	     -6.07543324	     -6.61367891	      5.88125900	      1.07805713	      0.91081742	      0.48658103	     -3.22783140	      5.47221603	    -20.72684015	      6.14349338	      6.14349338	     16.65698616	      5.05162223	     -6.27552884	     36.16054491	     -8.22038809	     -3.70501914	     17.80330046	     17.80330046	      5.22618311	     -6.50368649	     12.35656360	     -8.76386404	      7.73080847	      4.12475080	     53.82395586	    -15.42516410	     -4.97133519	     83.08666945	     44.67305713	      0.00000000	      0.00000000	    -19.11722651	     -6.30556227	      7.29039119	     25.09373370	     44.89227120	      0.00000000	      0.00000000
     52.59085714	     -6.16494114	     -6.50982275	      5.77052060	      1.07956767	      0.90906409	      0.48445235	     -3.49330200	      5.12396370	    -20.35724926	      7.01568786	      7.01568786	     18.31395018	      4.79996449	     -3.32584167	     35.72197836	     -7.90815866	     -3.70564694	     17.78213418	     17.78213418	      2.39587792	     -8.56607193	      7.74346270	     -8.55815869	      7.53519046	      4.43192425	     53.72971605	    -15.68601799	     -5.33577110	     85.87992249	     44.65661888	      0.00000000	      0.00000000	    -19.60362350	     -6.31507652	      6.65797523	     25.39557375	     45.07331451	      0.00000000	      0.00000000
     52.60171429	     -6.21500812	     -6.30932273	      5.66634481	      1.08099143	      0.90738070	      0.48221431	     -3.81208551	      4.66293714	    -20.04112468	      7.77417560	      7.77417560	     18.97664342	      4.35092278	     -3.27354566	     35.65288793	     -7.63655420	     -3.86707934	     18.80488445	     18.80488445	      1.60280602	     -9.79486233	      7.43806426	     -8.36238834	      7.26667938	      4.17805150	     54.29199377	    -15.23554198	     -5.26391882	     86.83121460	     44.63498811	      0.00000000	      0.00000000	    -19.94828336	     -6.20522068	      6.62886975	     25.16912281	     45.08506459	      0.00000000	      0.00000000
     52.61257143	     -6.15979134	     -6.00550653	      5.54320721	      1.08260736	      0.90600454	      0.47992700	     -4.29239501	      4.10330360	    -19.69291888	      8.46939567	      8.46939567	     19.54795673	      3.92712263	     -3.20797672	     35.50264374	     -7.32467697	     -4.00076697	     20.04478969	     20.04478969	      0.98837683	    -11.00932225	      7.12235726	     -8.26149217	      6.85164455	      4.04527467	     54.58425267	    -14.96224759	     -5.24566551	     87.62016143	     44.61534889	      0.00000000	      0.00000000	    -20.12243641	     -6.18516261	      6.59134094	     25.03469831	     45.09579050	      0.00000000	      0.00000000
     52.62342857	     -6.14157849	     -5.79125729	      5.42430557	      1.08405617	      0.90469576	      0.47753509	     -4.47293592	      3.55026787	    -19.26159610	      9.63573544	      9.63573544	     20.12603134	      3.20423217	     -3.05612421	     35.48416978	     -7.05503080	     -3.75933623	     21.41490894	     21.41490894	      0.35628222	    -12.49208587	      6.62902417	     -8.17338848	      6.59905012	      3.81575972	     54.69023399	    -14.59703745	     -5.24629561	     88.84874245	     44.58326626	      0.00000000	      0.00000000	    -20.17242939	     -6.12747496	      6.53211704	     24.89585689	     45.11517316	      0.00000000	      0.00000000
     52.63428571	     -6.25939777	     -5.48797492	      5.27881479	      1.08540458	      0.90352194	      0.47509900	     -4.34210397	      2.85603625	    -18.61286122	     11.11395006	     11.11395006	     20.75566735	      2.04744031	     -2.62742031	     35.50669060	     -6.65844536	     -3.42245052	     22.61334139	     22.61334139	     -0.30800470	    -14.10351304	      5.88354542	     -7.94003907	      6.20480529	      3.76507494	     54.28534582	    -14.40592940	     -5.40234923	     90.76389033	     44.54042734	      0.00000000	      0.00000000	    -19.92454738	     -6.11138132	      6.37398136	     24.69124940	     45.16725008	      0.00000000	      0.00000000
     52.64514286	     -6.08561586	     -5.23603830	      5.16696372	      1.08691407	      0.90308410	      0.47259579	     -4.51784637	      2.25590670	    -17.97311375	     12.58438887	     12.58438887	     21.16722205	      0.93391476	     -1.95613072	     35.28589498	     -6.39432030	     -3.17635352	     23.98503541	     23.98503541	     -0.44235549	    -15.21930494	      5.01626524	     -8.08668489	      5.89346755	      4.27724814	     53.38108724	    -14.89766194	     -6.02208948	     93.26331454	     44.52197174	      0.00000000	      0.00000000	    -19.01989574	     -6.12882056	      6.03768526	     24.03733012	     45.29459663	      0.00000000	      0.00000000
     52.65600000	     -5.96088715	     -5.00276943	      5.06028728	      1.08820084	      0.90282131	      0.46999241	     -4.40491229	      1.55640154	    -17.62848877	     14.46639798	     14.46639798	     21.25025405	      0.05297264	     -2.31548848	     35.17457770	     -6.16506657	     -3.02277354	     25.44529333	     25.44529333	      0.04571485	    -15.87196850	      4.76854823	     -8.14924529	      5.63597412	      3.98341041	     53.02896223	    -14.52258278	     -5.98017257	     94.09567980	     44.50290188	      0.00000000	      0.00000000	    -18.52254477	     -6.07586393	      6.02025585	     23.90886473	     45.31808984	      0.00000000	      0.00000000
     52.66685714	     -5.83283254	     -4.73857221	      4.95026948	      1.08939126	      0.90300168	      0.46734892	     -4.07921739	      0.79098728	    -17.14439327	     16.70550399	     16.70550399	     21.03388573	     -1.25195355	     -2.91538928	     34.94864566	     -5.88419979	     -2.83864148	     26.72378595	     26.72378595	      0.84607112	    -16.29949125	      4.76037103	     -8.21155141	      5.34065942	      3.87651661	     52.22423554	    -14.27609115	     -6.02533448	     95.19517775	     44.47818411	      0.00000000	      0.00000000	    -17.85130854	     -6.08375650	      5.98736163	     23.72107425	     45.34936430	      0.00000000	      0.00000000
     52.67771429	     -5.74861586	     -4.52208221	      4.84062725	      1.09031967	      0.90346079	      0.46467322	     -3.43505459	      0.02660203	    -16.62039580	     19.36724021	     19.36724021	     20.52214160	     -2.85740375	     -3.84796777	     34.68372339	     -5.66188021	     -2.84932596	     27.79920259	     27.79920259	      1.85652440	    -16.51679235	      4.92709363	     -8.25621235	      5.13766653	      3.74852012	     51.16698373	    -14.16770320	     -6.16325450	     96.44198973	     44.45186797	      0.00000000	      0.00000000	    -16.85041705	     -6.09258976	      5.96628127	     23.54702630	     45.38530145	      0.00000000	      0.00000000
     52.68857143	     -5.64924387	     -4.36607336	      4.70650493	      1.09110827	      0.90442802	      0.46210701	     -2.72935460	     -0.58611683	    -15.81160098	     21.94752922	     21.94752922	     18.80019391	     -5.39420246	     -6.73387811	     34.35813093	     -5.49287151	     -2.79280907	     28.81019296	     28.81019296	      3.55216006	    -16.40594653	      6.56885965	     -8.39539574	      4.95257234	      4.48488398	     49.20786739	    -14.89911000	     -7.07743401	     99.20821198	     44.43544218	      0.00000000	      0.00000000	    -15.03996211	     -6.15097340	      5.92140887	     22.53764384	     45.47017323	      0.00000000	      0.00000000
     52.69942857	     -5.61336087	     -4.12421579	      4.55655481	      1.09166164	      0.90550195	      0.45943801	     -1.52613803	     -1.54539548	    -15.54844887	     25.43678583	     25.43678583	     17.80506733	     -6.77999569	     -7.62944043	     33.84988245	     -5.25757897	     -2.96469377	     29.33948882	     29.33948882	      4.50781554	    -16.27051328	      6.22293539	     -8.42492167	      4.70767554	      4.11686876	     48.05772152	    -14.45620934	     -6.92552299	     99.53028683	     44.42583509	      0.00000000	      0.00000000	    -14.07515669	     -6.14121165	      5.95033995	     22.62388726	     45.48965455	      0.00000000	      0.00000000
     52.71028571	     -5.56981786	     -4.00938142	      4.42917894	      1.09210345	      0.90687161	      0.45692403	     -0.29117745	     -2.22525866	    -15.01891847	     28.69245865	     28.69245865	     15.32443427	     -9.59191599	    -11.21760222	     33.26538932	     -5.15298242	     -3.21418766	     29.70871305	     29.70871305	      5.74433305	    -16.00556720	      6.59432957	     -8.44531564	      4.61520915	      4.42520024	     46.03801662	    -14.67305053	     -7.49550833	    101.09084672	     44.46896241	      0.00000000	      0.00000000	    -12.36626534	     -6.16483611	      6.01202525	     22.04142400	     45.54805180	      0.00000000	      0.00000000
     52.72114286	     -5.56280906	     -3.88171575	      4.25200016	      1.09225972	      0.90836199	      0.45459937	      1.35756082	     -2.98565019	    -14.49342804	     32.62839563	     32.62839563	     13.78780565	    -11.68014988	    -11.47667863	     32.56978510	     -5.07146497	     -3.58461201	     29.77583969	     29.77583969	      6.55439767	    -15.68813245	      6.06366892	     -8.45144136	      4.49380572	      4.16394608	     44.38297394	    -14.37341218	     -7.38343003	    101.43108201	     44.46868497	      0.00000000	      0.00000000	    -11.18501095	     -6.26390780	      5.99443492	     22.41337695	     45.57899629	      0.00000000	      0.00000000
